HIERARCHY
ROOT Hips
{
	OFFSET 0.00000 0.00000 0.00000
	CHANNELS 6 Xposition Yposition Zposition Yrotation Zrotation Xrotation 
	JOINT Lumbar
	{
		OFFSET 0 0 0
		CHANNELS 3 Zrotation Xrotation Yrotation
		JOINT Neck
		{
			OFFSET 0.00 0.2701 0.00
			CHANNELS 3 Zrotation Xrotation Yrotation
			End Site
			{
				OFFSET 0.00 0.1379 0.00
			}
		}
		JOINT RightShoulder
		{
			OFFSET 0.0119 0.2289 0.1181
			CHANNELS 3 Zrotation Xrotation Yrotation
			JOINT RightElbow
			{
				OFFSET 0.00 -0.1475 0.00
				CHANNELS 2 Zrotation Yrotation
				JOINT RightWrist
				{
					OFFSET 0.00 -0.1605 0.00
					CHANNELS 2 Zrotation Xrotation
					End Site
					{
						OFFSET 0.0040 -0.1068 0.0006
					}
				}
			}
		}
		JOINT LeftShoulder
		{
			OFFSET 0.0119 0.2289 -0.1181
			CHANNELS 3 Zrotation Xrotation Yrotation
			JOINT LeftElbow
			{
				OFFSET 0.00 -0.1475 0.00
				CHANNELS 2 Zrotation Yrotation
				JOINT LeftWrist
				{
					OFFSET 0.00 -0.1605 0.00
					CHANNELS 2 Zrotation Xrotation
					End Site
					{
						OFFSET 0.0040 -0.1068 -0.0006
					}
				}
			}
		}
	}
	JOINT RightHip
	{
		OFFSET 0.0316 -0.0424 0.0458
		CHANNELS 3 Zrotation Xrotation Yrotation
		JOINT RightKnee
		{
			OFFSET 0.00 -0.2438 0.00
			CHANNELS 1 Zrotation
			JOINT RightAnkle
			{
				OFFSET 0.00 -0.2449 0.00
				CHANNELS 3 Zrotation Xrotation Yrotation
				End Site
				{
					OFFSET 0.1237 -0.0542 0.0051
				}
			}
		}
	}
	JOINT LeftHip
	{
		OFFSET 0.0316 -0.0424 -0.0458
		CHANNELS 3 Zrotation Xrotation Yrotation
		JOINT LeftKnee
		{
			OFFSET 0.00 -0.2438 0.00
			CHANNELS 1 Zrotation
			JOINT LeftAnkle
			{
				OFFSET 0.00 -0.2449 0.00
				CHANNELS 3 Zrotation Xrotation Yrotation
				End Site
				{
					OFFSET 0.1237 -0.0542 -0.0051
				}
			}
		}
	}
}
MOTION
Frames: 27
Frame Time: 0.02
0.00128 0.00039 -0.00177 21.11256 -34.84134 -5.35072 58.17514 1.54111 -0.93419 -9.17601 -4.97678 -1.13732 170.12387 -73.1572 -44.4168 13.94023 74.31857 0.77799 -8.384 161.68374 73.2119 71.5217 10.75502 -75.7878 0.08323 10.01543 48.60171 -1.63898 -0.66765 -19.15974 -7.94458 -4.16831 -4.3277 52.84792 7.25472 2.06568 -24.37384 -10.41065 4.54941 4.66894
0.00071 0.0003 -0.00128 21.13261 -34.81932 -5.3524 58.04268 1.51563 -0.91233 -9.3918 -4.96429 -1.16943 169.36149 -73.34385 -45.11186 13.99708 74.69088 0.7392 -8.38225 161.09508 73.21817 72.15317 10.74718 -75.77619 0.11431 9.99117 48.64372 -1.81781 -1.85945 -19.20007 -7.87376 -4.06516 -4.27262 52.89817 7.4066 2.67081 -24.37765 -10.35984 4.52101 4.6506
0.00013 0.00021 -0.00079 21.15262 -34.79726 -5.35407 57.91019 1.49017 -0.89047 -9.60746 -4.95187 -1.20152 168.59909 -73.53053 -45.80726 14.05374 75.06214 0.70059 -8.3803 160.50676 73.22476 72.78418 10.73925 -75.76562 0.14512 9.96673 48.68572 -1.99601 -3.04746 -19.24038 -7.80316 -3.96234 -4.21771 52.94832 7.55815 3.27448 -24.38146 -10.30918 4.49267 4.63231
-0.00044 0.00012 -0.00029 21.17262 -34.77529 -5.35575 57.77809 1.46477 -0.86866 -9.82268 -4.93942 -1.23354 167.83886 -73.71671 -46.50041 14.11039 75.43329 0.66193 -8.37851 159.91982 73.23108 73.41395 10.73143 -75.75424 0.1761 9.9425 48.72761 -2.17427 -4.23555 -19.2806 -7.73256 -3.85952 -4.16279 52.99841 7.70958 3.87781 -24.38526 -10.25852 4.46435 4.61403
-0.00101 3e-05 0.0002 21.19266 -34.75342 -5.35745 57.64613 1.43936 -0.84688 -10.03781 -4.92691 -1.26556 167.07904 -73.90262 -47.19273 14.16728 75.80553 0.62306 -8.37704 159.3327 73.23695 74.04359 10.72369 -75.74136 0.20735 9.91852 48.76948 -2.35318 -5.42754 -19.32083 -7.66171 -3.75636 -4.10769 53.04859 7.86128 4.48245 -24.38906 -10.20772 4.43596 4.5957
-0.00159 -7e-05 0.00069 21.21259 -34.73094 -5.35905 57.51252 1.41379 -0.82483 -10.25455 -4.91465 -1.29778 166.31099 -74.09089 -47.89481 14.22348 76.17478 0.58499 -8.37408 158.74169 73.24504 74.67742 10.71536 -75.73556 0.23721 9.89314 48.81176 -2.52992 -6.60716 -19.3613 -7.59164 -3.65425 -4.05318 53.09869 8.01253 5.08406 -24.39288 -10.15735 4.40772 4.57747
-0.00215 -0.00016 0.00118 21.23272 -34.7097 -5.36085 57.3825 1.3886 -0.80337 -10.46787 -4.90191 -1.32957 165.56166 -74.27426 -48.5753 14.28089 76.54938 0.54539 -8.37403 158.16019 73.24871 75.3022 10.7083 -75.71581 0.26999 9.87058 48.85312 -2.71079 -7.81011 -19.40121 -7.5201 -3.55017 -3.99756 53.14884 8.16449 5.69105 -24.39665 -10.10618 4.37923 4.55908
-0.00273 -0.00025 0.00168 21.25267 -34.68733 -5.36248 57.24893 1.36303 -0.78133 -10.68423 -4.8896 -1.36174 164.7927 -74.46206 -49.27782 14.33738 76.91954 0.50713 -8.37145 157.56803 73.25636 75.93517 10.69997 -75.70838 0.29977 9.8455 48.89542 -2.88792 -8.99205 -19.44168 -7.4499 -3.44786 -3.94294 53.19906 8.31584 6.29317 -24.40049 -10.05574 4.35095 4.54083
-0.00332 -0.00034 0.00218 21.27239 -34.66353 -5.36383 57.11187 1.33708 -0.75869 -10.90493 -4.87788 -1.39448 164.00837 -74.6558 -49.99959 14.39202 77.28248 0.47077 -8.36514 156.96987 73.26932 76.57927 10.69046 -75.71838 0.32711 9.81697 48.93855 -3.06025 -10.14676 -19.48273 -7.38137 -3.34786 -3.88961 53.24895 8.46637 6.88931 -24.40435 -10.00618 4.32298 4.52275
-0.00384 -0.00042 0.00263 21.2934 -34.64781 -5.36658 56.9974 1.31356 -0.73983 -11.10255 -4.86293 -1.42423 163.33836 -74.81698 -50.5876 14.45512 77.68156 0.42429 -8.37839 156.42729 73.25307 77.16275 10.68883 -75.63523 0.37214 9.80717 48.97592 -3.25954 -11.45352 -19.5201 -7.30333 -3.23501 -3.82907 53.29947 8.62138 7.51981 -24.40786 -9.95153 4.29341 4.50369
-0.0045 -0.00054 0.0032 21.31171 -34.61512 -5.36651 56.83372 1.28478 -0.71279 -11.34761 -4.85471 -1.4601 162.41091 -75.04571 -51.47218 14.50173 78.00781 0.39864 -8.35159 155.75419 73.29753 77.87176 10.66988 -75.74392 0.37757 9.75858 49.02607 -3.40235 -12.44234 -19.56543 -7.24529 -3.149 -3.7836 53.34946 8.76709 8.07775 -24.41224 -9.90764 4.2671 4.48668
-0.00547 -0.00077 0.00408 21.32247 -34.5348 -5.35747 56.546 1.24248 -0.66497 -11.73446 -4.86564 -1.51445 160.89771 -75.47039 -53.05587 14.48987 78.10731 0.43055 -8.20349 154.82646 73.51652 78.94796 10.60849 -76.42388 0.29189 9.59651 49.10682 -3.38535 -12.52624 -19.63137 -7.24329 -3.1396 -3.78106 53.39165 8.88574 8.43534 -24.41785 -9.89333 4.25081 4.47554
-0.00657 -0.00105 0.00509 21.33063 -34.43769 -5.34587 56.20667 1.19474 -0.60872 -12.16667 -4.88318 -1.57463 159.1005 -75.96018 -54.9544 14.46273 78.14074 0.48021 -8.01707 153.74781 73.79403 80.14537 10.52859 -77.28867 0.16319 9.39688 49.20138 -3.31244 -12.29646 -19.70554 -7.2612 -3.15665 -3.79338 53.43466 8.99535 8.72028 -24.42451 -9.88984 4.2376 4.46641
-0.00764 -0.00131 0.00606 21.33995 -34.34886 -5.33617 55.88395 1.14887 -0.55515 -12.57076 -4.8973 -1.63105 157.35839 -76.41429 -56.78922 14.45268 78.2193 0.52544 -7.85589 152.67138 74.04079 81.27333 10.45403 -78.03899 0.0427 9.21889 49.29229 -3.2684 -12.23196 -19.7767 -7.26919 -3.1596 -3.79783 53.48124 9.11009 9.0393 -24.43146 -9.88134 4.22229 4.45619
-0.00861 -0.00156 0.00697 21.34897 -34.25698 -5.32318 55.5906 1.10548 -0.50606 -13.00721 -4.91331 -1.69217 155.94074 -76.89747 -58.3071 14.4045 78.22541 0.56811 -7.66246 151.87741 74.30918 82.46485 10.39308 -78.91631 -0.02998 9.02112 49.37144 -3.21002 -12.07267 -19.84471 -7.28073 -3.17116 -3.80694 53.51052 9.22045 9.35373 -24.43524 -9.87318 4.20995 4.44672
-0.00982 -0.00185 0.00803 21.35847 -34.16781 -5.31666 55.22312 1.05573 -0.44609 -13.38626 -4.92678 -1.74488 153.76398 -77.33149 -60.53778 14.42615 78.37746 0.60431 -7.52604 150.45609 74.54144 83.54937 10.29853 -79.57544 -0.21243 8.85617 49.47924 -3.16778 -12.03424 -19.92133 -7.28979 -3.17134 -3.81 53.57688 9.33784 9.66041 -24.44576 -9.86698 4.19216 4.43616
-0.01162 -0.00226 0.00946 21.36591 -34.0878 -5.32649 54.66987 0.98891 -0.35424 -13.60201 -4.93307 -1.7731 149.70702 -77.64698 -64.84734 14.69617 78.85043 0.76173 -7.56619 147.36978 74.70051 84.3345 10.12341 -79.56493 -0.68693 8.78555 49.6558 -3.18814 -12.42649 -20.01898 -7.28546 -3.13131 -3.79154 53.73837 9.47611 9.96313 -24.4755 -9.86267 4.15859 4.42225
-0.01365 -0.00272 0.01104 21.37465 -34.0117 -5.34326 54.04263 0.91605 -0.25236 -13.75731 -4.93639 -1.79264 144.87527 -77.90367 -69.82835 15.02763 79.48587 0.88976 -7.66353 143.65365 74.81286 85.0014 9.91381 -79.33288 -1.26995 8.74943 49.86231 -3.22593 -12.94741 -20.12523 -7.27827 -3.07935 -3.76672 53.93869 9.62161 10.2596 -24.51177 -9.86022 4.11949 4.40717
-0.0156 -0.00316 0.01256 21.38543 -33.93527 -5.35836 53.44518 0.84649 -0.15775 -13.93604 -4.93999 -1.81607 140.29385 -78.16659 -74.37863 15.29659 80.11779 0.93143 -7.72784 140.20346 74.92064 85.70738 9.71486 -79.21603 -1.80429 8.70223 50.05935 -3.25282 -13.39646 -20.22788 -7.27348 -3.03437 -3.7456 54.1256 9.76471 10.56053 -24.54452 -9.85733 4.08282 4.39246
-0.01747 -0.00358 0.01405 21.38507 -33.85161 -5.36738 52.86221 0.77433 -0.05179 -14.13313 -4.94795 -1.83997 136.10497 -78.52183 -79.46962 15.70972 80.4713 1.37612 -7.81919 136.82553 75.14223 86.48556 9.536 -79.04266 -2.33965 8.63787 50.23828 -3.29007 -13.89166 -20.32911 -7.26472 -2.98374 -3.72156 54.29381 9.90503 10.85639 -24.57981 -9.85267 4.04636 4.37835
-0.01956 -0.00405 0.01565 21.4082 -33.78483 -5.39041 52.23206 0.70628 0.03327 -14.27741 -4.94652 -1.86071 130.95235 -78.66555 -83.59034 15.83898 81.41812 0.99749 -7.87 133.15966 75.11137 87.07603 9.30789 -78.93412 -2.89532 8.61344 50.46325 -3.31094 -14.32468 -20.43575 -7.26332 -2.94172 -3.70189 54.51125 10.05139 11.15685 -24.61112 -9.85256 4.00845 4.36289
-0.02219 -0.00466 0.01748 21.49622 -33.75817 -5.45304 51.49077 0.65053 0.05416 -14.28719 -4.9158 -1.87512 123.03576 -78.27622 -84.85768 15.1557 84.18909 -1.8484 -7.77881 128.76608 74.42521 87.2045 8.94833 -79.03263 -3.50436 8.72794 50.79616 -3.27954 -14.5618 -20.55067 -7.28259 -2.92616 -3.69573 54.84606 10.22641 11.51996 -24.63189 -9.85941 3.96494 4.34218
-0.02505 -0.00532 0.0194 21.60768 -33.74949 -5.529 50.70453 0.59919 0.05445 -14.24639 -4.87655 -1.88655 114.23184 -77.66848 -85.12408 14.18752 87.51122 -5.48474 -7.64691 124.12142 73.48115 87.11654 8.5416 -79.20311 -4.12556 8.87348 51.17659 -3.23181 -14.73206 -20.67157 -7.30934 -2.9196 -3.69413 55.23073 10.40498 11.88036 -24.64806 -9.87158 3.92065 4.32043
-0.02782 -0.00596 0.02129 21.70832 -33.73631 -5.59718 49.93852 0.54622 0.06663 -14.23073 -4.84378 -1.89912 106.02757 -77.1369 -85.85554 13.35848 90.43155 -8.62702 -7.54577 119.64933 72.6343 87.14192 8.15866 -79.36304 -4.72519 8.9822 51.54292 -3.19366 -14.92984 -20.79267 -7.33278 -2.90897 -3.69042 55.59858 10.57265 12.20923 -24.66498 -9.88477 3.87874 4.30037
-0.03054 -0.00659 0.02317 21.81011 -33.70774 -5.67299 49.17103 0.4916 0.06815 -14.20366 -4.79961 -1.9123 96.96779 -76.70249 -86.574 12.48969 93.99038 -12.33818 -7.39942 114.90833 71.86818 87.20618 7.76307 -79.44179 -5.39585 9.19298 51.87838 -3.14704 -15.1443 -20.90166 -7.35573 -2.89785 -3.68662 55.94332 10.77879 12.6716 -24.68775 -9.88393 3.82839 4.27531
-0.03341 -0.00725 0.02508 21.91454 -33.71548 -5.73584 48.39657 0.44139 0.0873 -14.18943 -4.77758 -1.92362 89.48825 -76.01249 -87.0651 11.6366 96.35562 -15.05351 -7.3311 110.67603 70.87591 87.00641 7.38495 -79.68452 -5.92069 9.19189 52.28934 -3.1139 -15.30614 -21.03727 -7.38155 -2.89006 -3.68418 56.34731 10.90679 12.86106 -24.69722 -9.91303 3.79515 4.26022
-0.03665 -0.00801 0.027 22.02519 -33.8191 -5.76109 47.61741 0.40377 0.15614 -14.22063 -4.81537 -1.93066 86.60212 -74.68855 -87.20485 10.88668 95.22475 -14.81392 -7.53812 107.91342 69.29764 87.31551 7.05284 -80.58913 -6.03332 8.65587 52.89457 -3.12263 -15.34278 -21.24387 -7.41309 -2.88912 -3.68415 56.90463 10.80725 12.24821 -24.67043 -10.02816 3.81225 4.2746
